<svg id="visual" viewBox="0 0 900 300" width="900" height="300" xmlns="http://www.w3.org/2000/svg" xmlns:xlink="http://www.w3.org/1999/xlink" version="1.1"><rect x="0" y="0" width="900" height="300" fill="#202731"></rect><path d="M0 164L25 158.8C50 153.7 100 143.3 150 144.7C200 146 250 159 300 169.7C350 180.3 400 188.7 450 188.3C500 188 550 179 600 168.3C650 157.7 700 145.3 750 150.2C800 155 850 177 875 188L900 199L900 0L875 0C850 0 800 0 750 0C700 0 650 0 600 0C550 0 500 0 450 0C400 0 350 0 300 0C250 0 200 0 150 0C100 0 50 0 25 0L0 0Z" fill="#dd3f31"></path><path d="M0 136L25 137.3C50 138.7 100 141.3 150 139.3C200 137.3 250 130.7 300 124.5C350 118.3 400 112.7 450 112C500 111.3 550 115.7 600 115.2C650 114.7 700 109.3 750 113.8C800 118.3 850 132.7 875 139.8L900 147L900 0L875 0C850 0 800 0 750 0C700 0 650 0 600 0C550 0 500 0 450 0C400 0 350 0 300 0C250 0 200 0 150 0C100 0 50 0 25 0L0 0Z" fill="#ce3d2e"></path><path d="M0 135L25 129.7C50 124.3 100 113.7 150 109C200 104.3 250 105.7 300 106.8C350 108 400 109 450 105.7C500 102.3 550 94.7 600 90.2C650 85.7 700 84.3 750 88.7C800 93 850 103 875 108L900 113L900 0L875 0C850 0 800 0 750 0C700 0 650 0 600 0C550 0 500 0 450 0C400 0 350 0 300 0C250 0 200 0 150 0C100 0 50 0 25 0L0 0Z" fill="#c03a2b"></path><path d="M0 102L25 96C50 90 100 78 150 76C200 74 250 82 300 82.7C350 83.3 400 76.7 450 77.2C500 77.7 550 85.3 600 91.7C650 98 700 103 750 102.8C800 102.7 850 97.3 875 94.7L900 92L900 0L875 0C850 0 800 0 750 0C700 0 650 0 600 0C550 0 500 0 450 0C400 0 350 0 300 0C250 0 200 0 150 0C100 0 50 0 25 0L0 0Z" fill="#b23829"></path><path d="M0 74L25 72.7C50 71.3 100 68.7 150 67.8C200 67 250 68 300 66.2C350 64.3 400 59.7 450 56.5C500 53.3 550 51.7 600 53.3C650 55 700 60 750 62.3C800 64.7 850 64.3 875 64.2L900 64L900 0L875 0C850 0 800 0 750 0C700 0 650 0 600 0C550 0 500 0 450 0C400 0 350 0 300 0C250 0 200 0 150 0C100 0 50 0 25 0L0 0Z" fill="#a43526"></path><path d="M0 32L25 31.8C50 31.7 100 31.3 150 34C200 36.7 250 42.3 300 45.5C350 48.7 400 49.3 450 46.7C500 44 550 38 600 33.2C650 28.3 700 24.7 750 26.2C800 27.7 850 34.3 875 37.7L900 41L900 0L875 0C850 0 800 0 750 0C700 0 650 0 600 0C550 0 500 0 450 0C400 0 350 0 300 0C250 0 200 0 150 0C100 0 50 0 25 0L0 0Z" fill="#973224"></path></svg>